Coordinates
version=1
nRows=14
nColumns=24
inDegrees=yes

Units are S.I. units (second, meters, Newtons, ...)
If the header above contains a line with 'inDegrees', this indicates whether rotational values are in degrees (yes) or radians (no).

endheader
time	pelvis_tilt	pelvis_list	pelvis_rotation	pelvis_tx	pelvis_ty	pelvis_tz	hip_flexion_r	hip_adduction_r	hip_rotation_r	knee_angle_r	ankle_angle_r	subtalar_angle_r	mtp_angle_r	hip_flexion_l	hip_adduction_l	hip_rotation_l	knee_angle_l	ankle_angle_l	subtalar_angle_l	mtp_angle_l	lumbar_extension	lumbar_bending	lumbar_rotation
      1.00000000	      6.16935484	      0.32035734	      1.06947665	      0.59325445	      1.04615658	      0.04602671	     -5.10923362	      1.73085225	     -4.93769383	     -9.24338568	      6.49175878	      0.00000134	      0.00000000	     18.00051922	     -4.02627401	     -7.14676444	    -58.81338689	      0.86561424	      0.00001095	      0.00000000	    -23.24072067	      1.08215446	      0.40498420
      1.01700000	      6.17586304	      0.34724664	      0.81692195	      0.59123784	      1.04597620	      0.04701821	     -6.48990291	      1.79864430	     -4.71099046	     -8.55888374	      6.91293619	      0.00000127	      0.00000000	     18.76701024	     -3.74378289	     -7.34835293	    -54.62197640	      1.22999288	      0.00000957	      0.00000000	    -23.33968625	      0.87226652	      0.71751077
      1.03300000	      6.15484028	      0.19278131	      0.64041386	      0.58915672	      1.04534017	      0.04811042	     -7.92518078	      2.07598778	     -4.57032639	     -7.70638829	      7.24812797	      0.00000111	      0.00000000	     19.36178102	     -3.81639215	     -7.84043521	    -49.94312946	      1.31908246	      0.00000819	      0.00000000	    -23.44728984	      0.88996009	      1.03236416
      1.05000000	      6.22884338	     -0.06724554	      0.52555826	      0.58705712	      1.04456072	      0.04870947	     -9.40394036	      2.43045326	     -4.48182731	     -6.98672033	      7.59877682	      0.00000116	      0.00000000	     19.60925128	     -4.01512897	     -8.55176058	    -44.74012206	      1.09351039	      0.00000660	      0.00000000	    -23.71073057	      1.03490143	      1.16745199
      1.06700000	      6.04058146	     -0.61454501	      0.23979476	      0.58481831	      1.04277180	      0.04948511	    -10.53648767	      3.03734950	     -4.12736509	     -6.36855796	      7.95806963	      0.00000114	      0.00000000	     19.99097276	     -4.54896228	     -9.49885243	    -39.31745322	      0.69931365	      0.00000509	      0.00000000	    -23.50504974	      1.46934098	      1.68146607
      1.08300000	      5.86545390	     -0.93580234	      0.00217732	      0.58296303	      1.04077122	      0.04966334	    -11.73702484	      3.35292237	     -3.70600016	     -5.73667376	      8.37427760	      0.00000105	      0.00000000	     20.06568034	     -4.68201778	    -10.44983305	    -33.45007098	      0.05427121	      0.00000387	      0.00000000	    -23.48556362	      1.58572525	      1.85407450
      1.10000000	      5.65843559	     -1.43740643	     -0.25933653	      0.58155584	      1.03829667	      0.05007985	    -13.01089179	      3.85134594	     -3.19739281	     -4.97086850	      8.69388435	      0.00000116	      0.00000000	     20.13742271	     -4.89795250	    -11.06718104	    -27.72706195	     -0.50768892	      0.00000347	      0.00000000	    -23.28846231	      1.94462384	      2.25650523
      1.11700000	      5.41638763	     -1.83699484	     -0.50413435	      0.58020094	      1.03552283	      0.05021977	    -14.13633810	      4.21406778	     -2.60491411	     -4.48281927	      9.17126047	      0.00000110	      0.00000000	     20.06360883	     -4.81714189	    -11.02573930	    -21.86989082	     -0.98879329	      0.00000336	      0.00000000	    -23.12853441	      2.22417519	      2.34960614
      1.13300000	      5.25815197	     -2.32351592	     -0.98355653	      0.57861890	      1.03253266	      0.05011239	    -15.24454617	      4.55000032	     -1.75335477	     -4.20193989	      9.70941127	      0.00000107	      0.00000000	     19.86092268	     -4.82677302	    -10.39872568	    -16.33818432	     -1.19996299	      0.00000342	      0.00000000	    -23.09660424	      2.43980257	      2.89382962
      1.15000000	      5.32240452	     -2.73850379	     -1.25913984	      0.57784755	      1.02972873	      0.04958368	    -16.63377738	      4.82279278	     -1.10652006	     -3.91858495	     10.20705409	      0.00000115	      0.00000000	     19.19834063	     -4.70831744	     -8.97075842	    -10.93775690	     -1.25352491	      0.00000334	      0.00000000	    -23.19574736	      2.72466028	      3.22646044
      1.16700000	      5.31981063	     -3.03172837	     -1.61950672	      0.57753081	      1.02651886	      0.04938117	    -18.05203238	      4.94364636	     -0.53962083	     -3.50348776	     10.64534444	      0.00000114	      0.00000000	     18.68581696	     -4.65001025	     -7.37807178	     -6.52628366	     -1.00709095	      0.00000338	      0.00000000	    -23.33329711	      2.70235165	      3.18903233
      1.18300000	      5.47971726	     -3.35194387	     -2.18293560	      0.57706526	      1.02370445	      0.04897404	    -19.40699631	      4.94817462	      0.16290858	     -3.54899355	     11.13984753	      0.00000120	      0.00000000	     18.08969257	     -4.77618327	     -6.08392796	     -3.24837649	     -0.60005602	      0.00000331	      0.00000000	    -23.47935938	      2.72056695	      3.83029621
      1.20000000	      5.41421550	     -3.45600348	     -2.46654970	      0.57742512	      1.02071183	      0.04848536	    -20.59167542	      4.83059603	      0.51810798	     -3.50793749	     11.49720674	      0.00000133	      0.00000000	     17.90291737	     -4.68948763	     -4.93957716	     -1.27316839	     -0.23341636	      0.00000331	      0.00000000	    -23.40861513	      2.51024153	      3.55251383
      1.21700000	      5.59543599	     -3.55329408	     -2.69700773	      0.57706085	      1.01855041	      0.04768248	    -21.65107544	      4.67747754	      0.84139191	     -4.13562363	     11.91984617	      0.00000154	      0.00000000	     17.90217354	     -4.61470687	     -4.10305037	     -1.12848806	      0.11392280	      0.00000336	      0.00000000	    -23.68780473	      2.24160157	      3.64768694
